<svg width="32" height="32" viewBox="0 0 32 32" fill="none" xmlns="http://www.w3.org/2000/svg">
  <!-- Brain node concept with connected dots -->
  
  <!-- Central large node -->
  <circle cx="16" cy="16" r="4" fill="#d4a853"/>
  
  <!-- Top nodes -->
  <circle cx="16" cy="6" r="2.5" fill="#d4a853"/>
  <circle cx="8" cy="10" r="2" fill="#d4a853"/>
  <circle cx="24" cy="10" r="2" fill="#d4a853"/>
  
  <!-- Bottom nodes -->
  <circle cx="16" cy="26" r="2.5" fill="#d4a853"/>
  <circle cx="9" cy="22" r="2" fill="#d4a853"/>
  <circle cx="23" cy="22" r="2" fill="#d4a853"/>
  
  <!-- Side nodes -->
  <circle cx="6" cy="16" r="2" fill="#d4a853"/>
  <circle cx="26" cy="16" r="2" fill="#d4a853"/>
  
  <!-- Connection lines (subtle) -->
  <line x1="16" y1="12" x2="16" y2="8.5" stroke="#d4a853" stroke-width="1.5" opacity="0.6"/>
  <line x1="14" y1="13" x2="10" y2="11" stroke="#d4a853" stroke-width="1.5" opacity="0.6"/>
  <line x1="18" y1="13" x2="22" y2="11" stroke="#d4a853" stroke-width="1.5" opacity="0.6"/>
  <line x1="16" y1="20" x2="16" y2="23.5" stroke="#d4a853" stroke-width="1.5" opacity="0.6"/>
  <line x1="14" y1="19" x2="10.5" y2="21" stroke="#d4a853" stroke-width="1.5" opacity="0.6"/>
  <line x1="18" y1="19" x2="21.5" y2="21" stroke="#d4a853" stroke-width="1.5" opacity="0.6"/>
  <line x1="12" y1="16" x2="8" y2="16" stroke="#d4a853" stroke-width="1.5" opacity="0.6"/>
  <line x1="20" y1="16" x2="24" y2="16" stroke="#d4a853" stroke-width="1.5" opacity="0.6"/>
</svg>
